<?xml version="1.0" encoding="utf-8"?>
<!-- Generator: Adobe Illustrator 24.0.2, SVG Export Plug-In . SVG Version: 6.00 Build 0)  -->
<svg version="1.0" id="Capa_1" xmlns="http://www.w3.org/2000/svg" xmlns:xlink="http://www.w3.org/1999/xlink" x="0px" y="0px"
	 viewBox="0 0 512 512" enable-background="new 0 0 512 512" xml:space="preserve">
<g>
	<path fill="#FFFFFF" d="M65.86,305.66c19.02-21.35,47.31-37.07,76.71-35.2C94.5,197.79,127.85,93,217.22,76.45
		c61.32-13.05,133.6,33.67,132.96,100.84c0.4,50.48-52.86,78.57-91.25,43.6c-12.76-12.1-23.65-44.08-1.9-51.88
		c20.52-4.2,23.08,20.61,3.99,24.78c13.93,5.73,28.76-9.51,19.63-23.34c-11.1-18.34-43.19-15.39-49.26,5.75
		c-5.66,14.61-3.36,28.55,4.13,41.72c22.84,44.37,86.27,48.05,118.4,11.78c33.65-31.54,24.27-81.97-3.2-114.26
		c-3.34-2.55-9.38-3.61-8.35-8.82c0.51-4.13,3.41-6.78,7.35-6.68c3.4,0.08,5.96,2.87,6.47,6.67c13.95,19.1,31.11,36.52,40.51,59.02
		c5.28-3.47,10.48-6.69,17.05-6.58c1.54-0.03,2.38-0.46,3.07-1.9c5.04-11.2,14.39-38.62,9.58-49.78c-2.09-2.49-1-6.46,1.62-8.62
		c5.56-4.98,15,3.16,10.16,9.11c-1.46,1.72-1.59,3.41-1.54,5.4c0.43,16.52-0.39,32.97-3.49,49.25c25.91,18.03,7.48,68.1-7.29,88.96
		c-39.38,52.79-111.85,58.48-172.68,56.77c-62.32-0.14-124.63-1.5-186.94-1.48C66.11,306.38,65.99,306.02,65.86,305.66z"/>
	<g>
		<g>
			<path fill="#FFFFFF" d="M41.93,381.3c0-1.85,0.36-3.7,0.89-5.78l4.79-19.26h-15.8l2.16-10.31h29l-7.1,30.21
				c-0.22,0.85-0.39,1.71-0.39,2.51c0,3.95,2.34,5.56,5.76,5.56c2.34,0,4.49-0.69,7.52-1.93l2.72,9.93
				c-4.17,1.77-8.43,2.81-14.31,2.81C47.96,395.04,41.93,389.86,41.93,381.3z M48.95,330.78c0-4.9,4.28-9.18,9.66-9.18
				c4.92,0,8.46,2.63,8.46,7.52c0,5.23-4.35,9.18-9.76,9.18C52.97,338.29,48.95,335.83,48.95,330.78z"/>
			<path fill="#FFFFFF" d="M93.04,345.95h10.71l-0.56,8.24h0.39c4.79-4.77,11.89-9.4,18.69-9.4c8.03,0,12.43,4.36,12.43,12.32
				c0,2.29-0.32,4.77-0.8,7.17l-5.94,29.6h-13.23l5.6-27.99c0.41-1.93,0.73-3.54,0.73-4.97c0-3.24-1.77-4.85-4.93-4.85
				c-4.05,0-9.06,2.97-13.55,8.59l-5.74,29.22H83.62L93.04,345.95z"/>
			<path fill="#FFFFFF" d="M153.68,380.56c0-1.96,0.22-3.73,0.77-6.3l3.66-18.01h-12.58l1.97-9.76l13.27-0.55l4.89-14.65h10.78
				l-3.09,14.65h20.37l-2.02,10.31h-20.54l-3.69,17.5c-0.39,1.74-0.41,2.65-0.41,3.69c0,4.88,2.82,6.77,6.88,6.77
				c3.94,0,7.75-1.66,10.64-3.45l4.02,9.25c-4.27,2.86-11.28,5.02-18.68,5.02C158.55,395.04,153.68,389.35,153.68,380.56z"/>
			<path fill="#FFFFFF" d="M202.52,373.77c0-17.26,13.12-28.99,27.81-28.99c12.4,0,19.48,7.7,19.48,18.83
				c0,3.98-1.05,8.41-1.6,10.01h-35.8l1.45-8.59h27.04l-3.79,2.01c0.32-1.14,0.58-2.48,0.58-3.72c0-5.46-3.02-8.4-7.75-8.4
				c-6.15,0-14.22,6.02-14.22,18.31c0,8.63,5.05,11.65,11.18,11.65c5.49,0,9.95-2.12,14.37-5.04l4.41,8.79
				c-5.64,3.98-13.26,6.4-21.82,6.4C211.53,395.04,202.52,388.31,202.52,373.77z"/>
			<path fill="#FFFFFF" d="M272.49,345.85l10.78,0.1l-1.4,12.8h0.39c5.1-8.51,12.5-13.96,19.81-13.96c4.2,0,7.6,0.8,9.47,2.07
				l-4.74,11.4c-2.21-1.17-4.53-1.68-7.34-1.68c-6.34,0-13.32,6.23-18.86,16.17l-4.3,21.14h-13.23L272.49,345.85z"/>
			<path fill="#FFFFFF" d="M324.91,345.95h10.71l-0.56,8.24h0.39c4.79-4.77,11.89-9.4,18.69-9.4c8.03,0,12.43,4.36,12.43,12.32
				c0,2.29-0.32,4.77-0.8,7.17l-5.94,29.6h-13.23l5.6-27.99c0.41-1.93,0.73-3.54,0.73-4.97c0-3.24-1.77-4.85-4.93-4.85
				c-4.05,0-9.06,2.97-13.55,8.59l-5.74,29.22h-13.22L324.91,345.95z"/>
			<path fill="#FFFFFF" d="M374.85,369.39c0-21.66,12.92-39.63,31.59-39.63c13.02,0,21.18,9.74,21.18,25.65
				c0,21.66-12.82,39.63-31.43,39.63C383.11,395.04,374.85,385.27,374.85,369.39z M414.04,354.18c0-8.67-2.81-12.98-8.9-12.98
				c-9.82,0-16.71,13.37-16.71,29.38c0,8.67,2.88,13.01,9.07,13.01C407.32,383.59,414.04,370.22,414.04,354.18z"/>
			<path fill="#FFFFFF" d="M432.22,382.73l8.63-7.53c3.56,5.48,8.48,8.46,14.47,8.46c5.76,0,9.7-2.49,9.7-6.95
				c0-3.65-2.79-5.67-7.27-8.33l-5.85-3.51c-5.72-3.4-10.55-8.65-10.55-16.76c0-11.15,9.4-18.36,21.47-18.36
				c8.91,0,16.65,4.5,20.91,10.49l-8.44,7.25c-2.95-3.54-7.13-6.52-12.57-6.52c-4.32,0-7.68,2.29-7.68,6.19
				c0,3.23,2.54,5.26,5.95,7.4l6.8,4.33c6.13,3.98,10.83,8.33,10.83,16.79c0,12.58-10.24,19.36-22.94,19.36
				C444.35,395.04,436.64,389.83,432.22,382.73z"/>
		</g>
	</g>
</g>
</svg>
