<?xml version="1.0" encoding="utf-8"?>
<!-- Generator: Adobe Illustrator 24.0.2, SVG Export Plug-In . SVG Version: 6.00 Build 0)  -->
<svg version="1.1" id="Capa_1" xmlns="http://www.w3.org/2000/svg" xmlns:xlink="http://www.w3.org/1999/xlink" x="0px" y="0px"
	 viewBox="0 0 512 512" style="enable-background:new 0 0 512 512;" xml:space="preserve">
<style type="text/css">
	.st0{fill:#31363B;}
</style>
<path class="st0" d="M16.27,389.98c23.54-26.44,58.58-45.9,94.97-43.57c-59.51-89.97-18.22-219.71,92.41-240.2
	c75.92-16.16,165.4,41.68,164.61,124.85c0.5,62.49-65.45,97.27-112.97,53.97c-15.8-14.98-29.28-54.57-2.35-64.23
	c25.4-5.2,28.58,25.51,4.94,30.67c17.24,7.1,35.6-11.77,24.31-28.9c-13.74-22.71-53.47-19.05-60.99,7.11
	c-7.01,18.09-4.16,35.35,5.12,51.65c28.28,54.93,106.8,59.49,146.59,14.59c41.65-39.04,30.04-101.48-3.97-141.46
	c-4.13-3.15-11.61-4.47-10.34-10.92c0.63-5.12,4.23-8.39,9.1-8.28c4.21,0.1,7.38,3.55,8.01,8.26
	c17.27,23.64,38.52,45.21,50.16,73.07c6.53-4.3,12.97-8.28,21.1-8.15c1.91-0.04,2.95-0.56,3.8-2.35
	c6.24-13.86,17.82-47.82,11.86-61.64c-2.59-3.09-1.24-8,2.01-10.67c6.88-6.17,18.57,3.92,12.58,11.28
	c-1.81,2.14-1.97,4.23-1.91,6.69c0.53,20.45-0.49,40.82-4.32,60.97c32.08,22.32,9.26,84.31-9.03,110.14
	c-48.75,65.35-138.48,72.4-213.78,70.28c-77.15-0.17-154.3-1.86-231.45-1.84C16.58,390.87,16.43,390.43,16.27,389.98z"/>
</svg>
